<svg xmlns="http://www.w3.org/2000/svg" viewBox="0 0 1280 720" role="img" aria-label="Bright red dojo scene used as the browser demo theme reference">
  <defs>
    <linearGradient id="floor" x1="0" y1="0" x2="0" y2="1">
      <stop offset="0" stop-color="#ffee26"/>
      <stop offset="1" stop-color="#a4ef64"/>
    </linearGradient>
    <linearGradient id="window" x1="0" y1="0" x2="1" y2="1">
      <stop offset="0" stop-color="#ff8a8a"/>
      <stop offset="1" stop-color="#6f6f84"/>
    </linearGradient>
    <filter id="shadow" x="-20%" y="-20%" width="140%" height="140%">
      <feDropShadow dx="0" dy="18" stdDeviation="18" flood-color="#000000" flood-opacity="0.35"/>
    </filter>
  </defs>
  <rect width="1280" height="720" fill="#ff0000"/>
  <rect y="455" width="1280" height="265" fill="url(#floor)"/>
  <g fill="none" stroke="#0a7d24" stroke-width="9" opacity="0.85">
    <path d="M0 648h1280"/>
    <path d="M130 720 486 455"/>
    <path d="M631 720 664 455"/>
    <path d="M1020 720 834 455"/>
  </g>
  <g>
    <rect x="370" y="96" width="520" height="310" rx="4" fill="url(#window)" stroke="#ff42dc" stroke-width="24"/>
    <path d="M370 192h520M370 286h520M493 96v310M774 96v310" stroke="#ff42dc" stroke-width="22"/>
    <path d="M520 139c97 17 139 71 238 50 40-9 81-34 132-26v134H370V121c56 7 98 10 150 18z" fill="#ffc067" opacity="0.33"/>
  </g>
  <g transform="translate(0 18)">
    <rect width="1280" height="58" fill="#dfad19"/>
    <path d="M0 0h170l22 24h170l30-24h222l25 31h143L814 0h277l30 26h159" fill="#b33e9f"/>
    <path d="M0 47h1280" stroke="#91540e" stroke-width="8" opacity="0.55"/>
    <path d="M0 15h1280M0 30h1280" stroke="#ffd14d" stroke-width="3" opacity="0.45"/>
  </g>
  <g filter="url(#shadow)">
    <ellipse cx="323" cy="604" rx="189" ry="33" fill="#000000" opacity="0.28"/>
    <path d="M312 413c56-38 142-32 167 16 22 41-13 77-81 78-67 1-143-36-86-94z" fill="#63b5ef" stroke="#07101f" stroke-width="6"/>
    <path d="M286 488l-26 110h56l22-92zM392 502l39 98h59l-48-118z" fill="#152dcc" stroke="#07101f" stroke-width="5"/>
    <path d="M275 380c-50 4-93 50-84 89 7 29 42 31 70 10" fill="none" stroke="#63b5ef" stroke-width="28" stroke-linecap="round"/>
    <path d="M238 196c63-78 149-77 219 0 35 39 44 118-8 168-54 52-158 52-215-1-56-53-35-119 4-167z" fill="#8ea72b" stroke="#07101f" stroke-width="7"/>
    <path d="M340 105c-4 45-2 82 8 111" stroke="#07101f" stroke-width="6" fill="none"/>
    <path d="M257 203c35 22 92 32 164-8" stroke="#07101f" stroke-width="5" fill="none"/>
    <path d="M267 250c30-12 55-12 77 0M374 247c24-11 48-10 72 4" stroke="#07101f" stroke-width="8" stroke-linecap="round"/>
    <circle cx="302" cy="270" r="10" fill="#07101f"/>
    <circle cx="413" cy="270" r="10" fill="#07101f"/>
    <path d="M335 318c19-19 43-18 61 0" fill="none" stroke="#07101f" stroke-width="9" stroke-linecap="round"/>
    <path d="M352 350c11 12 28 12 39 0" fill="none" stroke="#07101f" stroke-width="7" stroke-linecap="round"/>
  </g>
  <g filter="url(#shadow)">
    <ellipse cx="915" cy="600" rx="173" ry="30" fill="#000000" opacity="0.25"/>
    <path d="M842 446c0 92 38 148 101 148 64 0 105-55 105-149 0-68-39-109-101-109s-105 42-105 110z" fill="#f7f2ce" stroke="#07101f" stroke-width="7"/>
    <path d="M806 416c46-97 87-146 146-177 70 61 105 116 118 177z" fill="#ff4c10" stroke="#07101f" stroke-width="8"/>
    <rect x="877" y="434" width="148" height="112" rx="31" fill="#6e5b95"/>
    <circle cx="900" cy="474" r="18" fill="#ffffff" stroke="#07101f" stroke-width="5"/>
    <circle cx="989" cy="474" r="18" fill="#ffffff" stroke="#07101f" stroke-width="5"/>
    <circle cx="903" cy="474" r="7" fill="#07101f"/>
    <circle cx="986" cy="474" r="7" fill="#07101f"/>
    <path d="M925 523c15 15 40 15 55 0" fill="none" stroke="#07101f" stroke-width="8" stroke-linecap="round"/>
    <path d="M834 541l-57 65h93M1038 542l81 61h-95" fill="none" stroke="#07101f" stroke-width="11" stroke-linecap="round"/>
  </g>
  <g filter="url(#shadow)">
    <circle cx="1028" cy="236" r="82" fill="#fff8e8" stroke="#07101f" stroke-width="8"/>
    <path d="M956 236h145" stroke="#ff6eca" stroke-width="18" stroke-linecap="round"/>
    <path d="M970 221h119l-25 36H992z" fill="#345bff" stroke="#07101f" stroke-width="6"/>
    <text x="994" y="204" font-family="Comic Sans MS, Trebuchet MS, sans-serif" font-size="40" font-weight="900" fill="#07101f" transform="rotate(-4 994 204)">CHOP</text>
    <text x="1009" y="298" font-family="Comic Sans MS, Trebuchet MS, sans-serif" font-size="36" font-weight="900" fill="#07101f" transform="rotate(-6 1009 298)">CHOP</text>
  </g>
  <g opacity="0.9">
    <circle cx="576" cy="439" r="34" fill="#ffee26" stroke="#07101f" stroke-width="4"/>
    <circle cx="650" cy="439" r="34" fill="#ffee26" stroke="#07101f" stroke-width="4"/>
    <circle cx="724" cy="439" r="34" fill="#ffee26" stroke="#07101f" stroke-width="4"/>
    <circle cx="798" cy="439" r="34" fill="#ffee26" stroke="#07101f" stroke-width="4"/>
    <path d="M560 392c12 12 19 23 19 45M635 391c12 14 17 25 17 46M708 392c13 13 19 26 19 45M785 393c10 13 15 26 15 43" stroke="#82a000" stroke-width="6" fill="none"/>
  </g>
</svg>
